# xmcd
#
# Track frame offsets: 
#        150
#        21599
#        42216
#        62491
#        85944
#        95981
#        120339
#        142625
#
# Disc length: 2166 seconds
#
# Revision: 0
# Processed by: cddbd v1.5.2PL0 Copyright (c) Steve Scherf et al.
# Submitted via: ExactAudioCopy v1.0b1
#
DISCID=62087408
DTITLE=Ole Ringstad - Undressed In Blue
DYEAR=2011
DGENRE=Country
TTITLE0=Everyday
TTITLE1=Undressed
TTITLE2=Send Me An Angel
TTITLE3=Eyes In Tears
TTITLE4=The Girl
TTITLE5=Spring
TTITLE6=Joyride
TTITLE7=Shining(Odas Song)
EXTD=
EXTT0=
EXTT1=
EXTT2=
EXTT3=
EXTT4=
EXTT5=
EXTT6=
EXTT7=
PLAYORDER=
